<svg xmlns="http://www.w3.org/2000/svg" xmlns:xlink="http://www.w3.org/1999/xlink"><symbol fill="none" stroke="currentColor" stroke-linecap="round" stroke-linejoin="round" stroke-width="1.5" viewBox="0 0 24 24" id="moon" xmlns="http://www.w3.org/2000/svg"><path stroke="none" d="M0 0h24v24H0z"/><path d="M12 3h.393a7.5 7.5 0 0 0 7.92 12.446A9 9 0 1 1 12 2.992z"/></symbol><symbol fill="none" stroke="currentColor" stroke-linecap="round" stroke-linejoin="round" stroke-width="1.5" viewBox="0 0 24 24" id="search" xmlns="http://www.w3.org/2000/svg"><path stroke="none" d="M0 0h24v24H0z"/><path d="M3 10a7 7 0 1 0 14 0 7 7 0 1 0-14 0m18 11-6-6"/></symbol><symbol fill="none" stroke="currentColor" stroke-linecap="round" stroke-linejoin="round" stroke-width="1.5" viewBox="0 0 24 24" id="sun" xmlns="http://www.w3.org/2000/svg"><path stroke="none" d="M0 0h24v24H0z"/><path d="M8 12a4 4 0 1 0 8 0 4 4 0 1 0-8 0M3 12h1m8-9v1m8 8h1m-9 8v1M5.6 5.6l.7.7m12.1-.7-.7.7m0 11.4.7.7m-12.1-.7-.7.7"/></symbol><symbol fill="none" stroke="currentColor" stroke-linecap="round" stroke-linejoin="round" stroke-width="1.5" viewBox="0 0 24 24" id="tags" xmlns="http://www.w3.org/2000/svg"><path stroke="none" d="M0 0h24v24H0z"/><path d="M3 8v4.172a2 2 0 0 0 .586 1.414l5.71 5.71a2.41 2.41 0 0 0 3.408 0l3.592-3.592a2.41 2.41 0 0 0 0-3.408l-5.71-5.71A2 2 0 0 0 9.172 6H5a2 2 0 0 0-2 2"/><path d="m18 19 1.592-1.592a4.82 4.82 0 0 0 0-6.816L15 6m-8 4h-.01"/></symbol></svg>